<svg width="17" height="16" viewBox="0 0 17 16" fill="none" xmlns="http://www.w3.org/2000/svg">
<g opacity="0.5">
<path d="M12.3 15.1667C11.5467 15.1667 10.7533 14.9867 9.93333 14.64C9.13333 14.3 8.32667 13.8333 7.54 13.2667C6.76 12.6933 6.00667 12.0533 5.29333 11.3533C4.58667 10.64 3.94667 9.88666 3.38 9.11333C2.80667 8.31333 2.34667 7.51333 2.02 6.74C1.67333 5.91333 1.5 5.11333 1.5 4.35999C1.5 3.83999 1.59333 3.34666 1.77333 2.88666C1.96 2.41333 2.26 1.97333 2.66667 1.59333C3.18 1.08666 3.76667 0.833328 4.39333 0.833328C4.65333 0.833328 4.92 0.893328 5.14667 0.999995C5.40667 1.11999 5.62667 1.29999 5.78667 1.53999L7.33333 3.72C7.47333 3.91333 7.58 4.09999 7.65333 4.28666C7.74 4.48666 7.78667 4.68666 7.78667 4.88C7.78667 5.13333 7.71333 5.37999 7.57333 5.61333C7.47333 5.79333 7.32 5.98666 7.12667 6.18L6.67333 6.65333C6.68 6.67333 6.68667 6.68666 6.69333 6.7C6.77333 6.84 6.93333 7.08 7.24 7.43999C7.56667 7.81333 7.87333 8.15333 8.18 8.46666C8.57333 8.85333 8.9 9.16 9.20667 9.41333C9.58667 9.73333 9.83333 9.89333 9.98 9.96666L9.96667 10L10.4533 9.51999C10.66 9.31333 10.86 9.16 11.0533 9.06C11.42 8.83333 11.8867 8.79333 12.3533 8.98666C12.5267 9.05999 12.7133 9.16 12.9133 9.3L15.1267 10.8733C15.3733 11.04 15.5533 11.2533 15.66 11.5067C15.76 11.76 15.8067 11.9933 15.8067 12.2267C15.8067 12.5467 15.7333 12.8667 15.5933 13.1667C15.4533 13.4667 15.28 13.7267 15.06 13.9667C14.68 14.3867 14.2667 14.6867 13.7867 14.88C13.3267 15.0667 12.8267 15.1667 12.3 15.1667ZM4.39333 1.83333C4.02667 1.83333 3.68667 1.99333 3.36 2.31333C3.05333 2.6 2.84 2.91333 2.70667 3.25333C2.56667 3.6 2.5 3.96666 2.5 4.35999C2.5 4.98 2.64667 5.65333 2.94 6.34666C3.24 7.05333 3.66 7.78666 4.19333 8.51999C4.72667 9.25333 5.33333 9.96666 6 10.64C6.66667 11.3 7.38667 11.9133 8.12667 12.4533C8.84667 12.98 9.58667 13.4067 10.32 13.7133C11.46 14.2 12.5267 14.3133 13.4067 13.9467C13.7467 13.8067 14.0467 13.5933 14.32 13.2867C14.4733 13.12 14.5933 12.94 14.6933 12.7267C14.7733 12.56 14.8133 12.3867 14.8133 12.2133C14.8133 12.1067 14.7933 12 14.74 11.88C14.72 11.84 14.68 11.7667 14.5533 11.68L12.34 10.1067C12.2067 10.0133 12.0867 9.94666 11.9733 9.9C11.8267 9.84 11.7667 9.77999 11.54 9.92C11.4067 9.98666 11.2867 10.0867 11.1533 10.22L10.6467 10.72C10.3867 10.9733 9.98667 11.0333 9.68 10.92L9.5 10.84C9.22667 10.6933 8.90667 10.4667 8.55333 10.1667C8.23333 9.89333 7.88667 9.57333 7.46667 9.16C7.14 8.82666 6.81333 8.47333 6.47333 8.08C6.16 7.71333 5.93333 7.4 5.79333 7.14L5.71333 6.93999C5.67333 6.78666 5.66 6.7 5.66 6.60666C5.66 6.36666 5.74667 6.15333 5.91333 5.98666L6.41333 5.46666C6.54667 5.33333 6.64667 5.20666 6.71333 5.09333C6.76667 5.00666 6.78667 4.93333 6.78667 4.86666C6.78667 4.81333 6.76667 4.73333 6.73333 4.65333C6.68667 4.54666 6.61333 4.42666 6.52 4.29999L4.97333 2.11333C4.90667 2.01999 4.82667 1.95333 4.72667 1.90666C4.62 1.85999 4.50667 1.83333 4.39333 1.83333ZM9.96667 10.0067L9.86 10.46L10.04 9.99333C10.0067 9.98666 9.98 9.99333 9.96667 10.0067Z" fill="black"/>
</g>
</svg>
