<svg width="32" height="32" viewBox="0 0 32 32" fill="none" xmlns="http://www.w3.org/2000/svg">
<path fill-rule="evenodd" clip-rule="evenodd" d="M16 32C24.8366 32 32 24.8366 32 16C32 7.16344 24.8366 0 16 0C7.16344 0 0 7.16344 0 16C0 24.8366 7.16344 32 16 32ZM17.6701 24.6474C18.74 25.0989 19.7751 25.3333 20.758 25.3333C21.4452 25.3333 22.0975 25.2031 22.6977 24.96C23.324 24.7082 23.8633 24.3175 24.3591 23.7705C24.6462 23.458 24.8723 23.1194 25.055 22.7287C25.2377 22.338 25.3333 21.9212 25.3333 21.5045C25.3333 21.2006 25.2724 20.8967 25.142 20.5668C25.0028 20.2369 24.7679 19.9591 24.4461 19.742L21.5582 17.693C21.2973 17.5107 21.0537 17.3805 20.8276 17.285C20.2187 17.0332 19.6098 17.0853 19.1314 17.3805C18.8792 17.5107 18.6182 17.7104 18.3486 17.9795L17.7136 18.6047L17.731 18.5612C17.5396 18.4657 17.2178 18.2574 16.722 17.8406C16.3218 17.5107 15.8956 17.1113 15.3824 16.6078C14.9823 16.1997 14.5822 15.7569 14.1559 15.2707C13.7558 14.8019 13.5471 14.4893 13.4427 14.307C13.434 14.2896 13.4253 14.2722 13.4166 14.2462L14.0081 13.6298C14.2603 13.378 14.4604 13.1262 14.5909 12.8918C14.7735 12.5879 14.8692 12.2667 14.8692 11.9367C14.8692 11.685 14.8083 11.4245 14.6952 11.164C14.5996 10.9209 14.4604 10.6778 14.2777 10.426L12.2597 7.58698C12.0509 7.27442 11.7639 7.04 11.4247 6.88372C11.1289 6.74481 10.781 6.66667 10.4418 6.66667C9.62411 6.66667 8.85865 6.99659 8.18888 7.65643C7.65828 8.15132 7.26685 8.72434 7.0233 9.34077C6.78844 9.93985 6.66667 10.5823 6.66667 11.2595C6.66667 12.2406 6.89282 13.2825 7.34514 14.3591C7.77136 15.3662 8.37154 16.4081 9.1196 17.4499C9.85896 18.4571 10.694 19.4381 11.616 20.3671C12.5468 21.2788 13.5297 22.1122 14.5474 22.8589C15.5738 23.5969 16.6263 24.2047 17.6701 24.6474ZM9.09351 8.59411C9.51973 8.17736 9.96334 7.96899 10.4418 7.96899C10.5896 7.96899 10.7375 8.00372 10.8767 8.0645C11.0071 8.12527 11.1115 8.21209 11.1985 8.33364L13.2165 11.1814C13.3383 11.3464 13.434 11.5026 13.4949 11.6416C13.5384 11.7457 13.5645 11.8499 13.5645 11.9194C13.5645 12.0062 13.5384 12.1017 13.4688 12.2146C13.3818 12.3622 13.2513 12.5271 13.0774 12.7008L12.425 13.378C12.2075 13.595 12.0944 13.8729 12.0944 14.1854C12.0944 14.307 12.1118 14.4198 12.164 14.6195L12.2684 14.88C12.4511 15.2186 12.7468 15.6267 13.1556 16.1042C13.5993 16.6164 14.0255 17.0766 14.4517 17.5107C14.9997 18.049 15.452 18.4657 15.8695 18.8217C16.3305 19.2124 16.7481 19.5076 17.1047 19.6986L17.3395 19.8028C17.7397 19.9504 18.2616 19.8722 18.6008 19.5423L19.2619 18.8912C19.4359 18.7175 19.5924 18.5873 19.7664 18.5005C20.0259 18.3405 20.1179 18.381 20.2659 18.4462C20.2866 18.4553 20.3083 18.4648 20.3318 18.4744C20.4797 18.5352 20.6362 18.622 20.8102 18.7436L23.698 20.7926C23.8633 20.9054 23.9155 21.0009 23.9416 21.053C24.0112 21.2093 24.0373 21.3482 24.0373 21.4871C24.0373 21.7129 23.9851 21.9386 23.8807 22.1557C23.7502 22.4335 23.5937 22.6679 23.3936 22.885C23.037 23.2843 22.6455 23.5622 22.2019 23.7445C21.0537 24.222 19.662 24.0744 18.1746 23.4406C17.2178 23.0412 16.2523 22.4856 15.3128 21.7997C14.3473 21.0964 13.4079 20.2977 12.5381 19.4381C11.6682 18.5612 10.8767 17.6322 10.1808 16.6772C9.48493 15.7222 8.93694 14.7671 8.54551 13.8468C8.16278 12.9439 7.97142 12.067 7.97142 11.2595C7.97142 10.7473 8.0584 10.2698 8.24107 9.81829C8.41504 9.3755 8.69338 8.96744 9.09351 8.59411ZM17.5744 19.2037L17.7136 18.6133C17.731 18.596 17.7658 18.5873 17.8093 18.596L17.5744 19.2037Z" fill="#6C7275"/>
</svg>
