<svg width="24" height="24" viewBox="0 0 24 24" fill="none" xmlns="http://www.w3.org/2000/svg">
<path d="M14.4417 7.25C14.2517 7.25 14.0617 7.18001 13.9117 7.03L11.8817 5L9.85172 7.03C9.56172 7.32 9.08172 7.32 8.79172 7.03C8.50172 6.74001 8.50172 6.26 8.79172 5.97L11.3517 3.41C11.6417 3.12 12.1217 3.12 12.4117 3.41L14.9717 5.97C15.2617 6.26 15.2617 6.74001 14.9717 7.03C14.8217 7.18001 14.6317 7.25 14.4417 7.25Z" fill="#FA6100"/>
<path d="M11.8789 14.93C11.4689 14.93 11.1289 14.59 11.1289 14.18V4.01001C11.1289 3.60001 11.4689 3.26001 11.8789 3.26001C12.2889 3.26001 12.6289 3.60001 12.6289 4.01001V14.18C12.6289 14.6 12.2889 14.93 11.8789 14.93Z" fill="#FA6100"/>
<path d="M12 20.75C6.85 20.75 3.25 17.15 3.25 12C3.25 11.59 3.59 11.25 4 11.25C4.41 11.25 4.75 11.59 4.75 12C4.75 16.27 7.73 19.25 12 19.25C16.27 19.25 19.25 16.27 19.25 12C19.25 11.59 19.59 11.25 20 11.25C20.41 11.25 20.75 11.59 20.75 12C20.75 17.15 17.15 20.75 12 20.75Z" fill="#FA6100"/>
</svg>
