<svg width="24" height="24" viewBox="0 0 24 24" fill="none" xmlns="http://www.w3.org/2000/svg">
<path d="M11.8817 14.99C11.6917 14.99 11.5017 14.92 11.3517 14.77L8.79172 12.21C8.50172 11.92 8.50172 11.44 8.79172 11.15C9.08172 10.86 9.56172 10.86 9.85172 11.15L11.8817 13.18L13.9117 11.15C14.2017 10.86 14.6817 10.86 14.9717 11.15C15.2617 11.44 15.2617 11.92 14.9717 12.21L12.4117 14.77C12.2617 14.92 12.0717 14.99 11.8817 14.99Z" fill="#FA6100"/>
<path d="M11.8789 14.92C11.4689 14.92 11.1289 14.58 11.1289 14.17V4C11.1289 3.59 11.4689 3.25 11.8789 3.25C12.2889 3.25 12.6289 3.59 12.6289 4V14.17C12.6289 14.58 12.2889 14.92 11.8789 14.92Z" fill="#FA6100"/>
<path d="M12 20.9301C6.85 20.9301 3.25 17.3301 3.25 12.1801C3.25 11.7701 3.59 11.4301 4 11.4301C4.41 11.4301 4.75 11.7701 4.75 12.1801C4.75 16.4501 7.73 19.4301 12 19.4301C16.27 19.4301 19.25 16.4501 19.25 12.1801C19.25 11.7701 19.59 11.4301 20 11.4301C20.41 11.4301 20.75 11.7701 20.75 12.1801C20.75 17.3301 17.15 20.9301 12 20.9301Z" fill="#FA6100"/>
</svg>
