<svg width="16" height="16" viewBox="0 0 16 16" fill="none" xmlns="http://www.w3.org/2000/svg">
<path d="M7.99992 9.44667C6.57992 9.44667 5.41992 8.29333 5.41992 6.86667C5.41992 5.44 6.57992 4.29333 7.99992 4.29333C9.41992 4.29333 10.5799 5.44667 10.5799 6.87334C10.5799 8.3 9.41992 9.44667 7.99992 9.44667ZM7.99992 5.29333C7.13326 5.29333 6.41992 6 6.41992 6.87334C6.41992 7.74667 7.12659 8.45333 7.99992 8.45333C8.87326 8.45333 9.57992 7.74667 9.57992 6.87334C9.57992 6 8.86659 5.29333 7.99992 5.29333Z" fill="#6C7275"/>
<path d="M7.99914 15.1733C7.01247 15.1733 6.01914 14.8 5.24581 14.06C3.27914 12.1667 1.10581 9.14666 1.92581 5.55333C2.66581 2.29333 5.51247 0.833328 7.99914 0.833328C7.99914 0.833328 7.99914 0.833328 8.00581 0.833328C10.4925 0.833328 13.3391 2.29333 14.0791 5.56C14.8925 9.15333 12.7191 12.1667 10.7525 14.06C9.97914 14.8 8.98581 15.1733 7.99914 15.1733ZM7.99914 1.83333C6.05914 1.83333 3.56581 2.86666 2.90581 5.77333C2.18581 8.91333 4.15914 11.62 5.94581 13.3333C7.09914 14.4467 8.90581 14.4467 10.0591 13.3333C11.8391 11.62 13.8125 8.91333 13.1058 5.77333C12.4391 2.86666 9.93914 1.83333 7.99914 1.83333Z" fill="#6C7275"/>
</svg>
