<svg width="40" height="40" viewBox="0 0 40 40" fill="none" xmlns="http://www.w3.org/2000/svg">
<path d="M33.332 36.0119H6.66536C4.82442 36.0119 3.33203 34.5462 3.33203 32.7381V14.8124C3.38828 13.7138 3.99416 12.7136 4.95036 12.1409L18.2837 4.28381C19.3389 3.6624 20.6568 3.6624 21.712 4.28381L35.0454 12.1409C36.0473 12.7348 36.6614 13.7989 36.6654 14.9482V32.7381C36.6654 34.5462 35.173 36.0119 33.332 36.0119ZM6.66536 16.153V32.7381H33.332V16.153L19.9987 24.8826L6.66536 16.153ZM19.9987 7.0911L8.8587 13.6551L19.9987 20.9491L31.137 13.6551L19.9987 7.0911Z" fill="white"/>
</svg>
