<svg width="50" height="56" viewBox="0 0 50 56" fill="none" xmlns="http://www.w3.org/2000/svg">
<g clip-path="url(#clip0_3685_6499)">
<path d="M45.8197 56H8.99311C6.68865 56 4.8125 54.1287 4.8125 51.8271V4.17294C4.8125 1.87127 6.68721 0 8.99311 0H33.4509C33.6066 0 33.7552 0.061896 33.8662 0.171293L49.8287 16.1045C49.9382 16.2139 50.0003 16.3636 50.0003 16.519V51.8271C50.0003 54.1287 48.1255 56 45.8197 56ZM8.99311 1.1717C7.33471 1.1717 5.98636 2.51758 5.98636 4.17294V51.8271C5.98636 53.4824 7.33471 54.8283 8.99311 54.8283H45.8197C47.4781 54.8283 48.8264 53.4824 48.8264 51.8271V16.7608L33.2072 1.1717H8.99311Z" fill="#6C7275"/>
<path d="M49.4127 17.1048H33.4502C33.1257 17.1048 32.8633 16.8428 32.8633 16.519V0.585801C32.8633 0.348294 33.006 0.135256 33.2252 0.0445717C33.4444 -0.0461131 33.6968 0.00426732 33.8655 0.171242L49.828 16.1044C49.9953 16.2714 50.0457 16.5233 49.9549 16.7435C49.864 16.9623 49.6506 17.1048 49.4127 17.1048ZM34.0371 15.9331H47.9965L34.0371 1.99933V15.9331Z" fill="#6C7275"/>
<path d="M40.1885 30.46H2.76781C1.5628 30.46 0.585938 31.435 0.585938 32.6378V43.864C0.585938 45.0668 1.5628 46.0419 2.76781 46.0419H40.1885C41.3935 46.0419 42.3704 45.0668 42.3704 43.864V32.6378C42.3704 31.435 41.3935 30.46 40.1885 30.46Z" fill="#FA6100"/>
<path d="M40.5947 46.6277H2.36214C1.05993 46.6277 0 45.5697 0 44.2699V32.2333C0 30.9335 1.05993 29.8755 2.36214 29.8755H40.5947C41.8969 29.8755 42.9569 30.9335 42.9569 32.2333V44.2699C42.9569 45.5697 41.8969 46.6277 40.5947 46.6277ZM2.36214 31.0458C1.70599 31.0458 1.17386 31.5783 1.17386 32.2319V44.2685C1.17386 44.9234 1.70743 45.4546 2.36214 45.4546H40.5947C41.2509 45.4546 41.783 44.922 41.783 44.2685V32.2319C41.783 31.5769 41.2494 31.0458 40.5947 31.0458H2.36214Z" fill="#6C7275"/>
<path d="M10.2593 34.0339H13.6568C15.4003 34.0339 16.5871 35.0113 16.5871 36.5918C16.5871 38.3595 15.2676 39.2102 13.6049 39.2102H11.847V42.4691H10.2578V34.0339H10.2593ZM11.8484 37.9334H13.4362C14.3879 37.9334 14.9806 37.526 14.9806 36.6235C14.9806 35.721 14.3259 35.3093 13.4765 35.3093H11.8484V37.9319V37.9334Z" fill="white"/>
<path d="M18.0312 34.0339H21.2687C23.7001 34.0339 25.308 35.6519 25.308 38.1522C25.308 40.6525 23.7448 42.4691 21.2053 42.4691H18.0312V34.0339ZM19.6161 41.175H21.1245C22.8709 41.175 23.6655 39.8968 23.6655 38.1637C23.6655 36.6868 22.9286 35.328 21.1317 35.328H19.6147V41.175H19.6161Z" fill="white"/>
<path d="M26.9648 34.0339H32.7029V35.3453H28.5165V37.6412H32.439V38.9525H28.5165V42.4691H26.9663V34.0339H26.9648Z" fill="white"/>
</g>
<defs>
<clipPath id="clip0_3685_6499">
<rect width="50" height="56" fill="white"/>
</clipPath>
</defs>
</svg>
