<svg width="32" height="32" viewBox="0 0 32 32" fill="none" xmlns="http://www.w3.org/2000/svg">
<path fill-rule="evenodd" clip-rule="evenodd" d="M16 32C24.8366 32 32 24.8366 32 16C32 7.16344 24.8366 0 16 0C7.16344 0 0 7.16344 0 16C0 24.8366 7.16344 32 16 32ZM10.6268 10.6268C11.8285 9.42512 13.4584 8.75 15.1579 8.75C16.8574 8.75 18.4872 9.42512 19.689 10.6268C20.8907 11.8285 21.5658 13.4584 21.5658 15.1579C21.5658 16.8474 20.8986 18.4681 19.7101 19.6677C19.7042 19.6733 19.6983 19.679 19.6925 19.6848C19.6861 19.6911 19.6798 19.6976 19.6738 19.7041C18.4735 20.8964 16.8502 21.5658 15.1579 21.5658C13.4584 21.5658 11.8285 20.8907 10.6268 19.689C9.42512 18.4872 8.75 16.8574 8.75 15.1579C8.75 13.4584 9.42512 11.8285 10.6268 10.6268ZM23.0658 15.1579C23.0658 17.0023 22.4214 18.7803 21.2574 20.1909L24.5308 23.4701C24.8234 23.7633 24.823 24.2382 24.5299 24.5308C24.2367 24.8234 23.7618 24.823 23.4692 24.5299L20.1973 21.2521C18.7857 22.4195 17.0051 23.0658 15.1579 23.0658C13.0606 23.0658 11.0492 22.2326 9.56617 20.7496C8.08315 19.2666 7.25 17.2552 7.25 15.1579C7.25 13.0606 8.08315 11.0492 9.56617 9.56617C11.0492 8.08315 13.0606 7.25 15.1579 7.25C17.2552 7.25 19.2666 8.08315 20.7496 9.56617C22.2326 11.0492 23.0658 13.0606 23.0658 15.1579Z" fill="#6C7275"/>
</svg>
