<svg width="25" height="24" viewBox="0 0 25 24" fill="none" xmlns="http://www.w3.org/2000/svg">
<path d="M17.8182 22.0001C16.7165 22.0126 15.6723 21.5182 14.9961 20.6638C14.3199 19.8095 14.0896 18.6936 14.3737 17.6481L7.99991 14.0701C6.89853 15.0611 5.2841 15.2709 3.95823 14.5952C2.63235 13.9195 1.87746 12.5023 2.06836 11.0473C2.25926 9.59226 3.3553 8.40932 4.81227 8.08583C6.26923 7.76234 7.77678 8.3672 8.58638 9.60008L14.3727 6.35108C14.2978 6.07327 14.2582 5.78744 14.2546 5.50008C14.24 3.8268 15.4233 2.37322 17.0884 2.0189C18.7536 1.66458 20.4433 2.50683 21.1351 4.036C21.827 5.56517 21.331 7.36131 19.9472 8.33759C18.5635 9.31387 16.672 9.20217 15.4174 8.07008L9.15453 11.5851C9.14833 11.8444 9.11143 12.1021 9.04457 12.3531L15.4174 15.9301C16.5906 14.8726 18.3363 14.7094 19.6916 15.5304C21.0469 16.3514 21.6819 17.9568 21.2463 19.4611C20.8107 20.9654 19.4106 22.0024 17.8182 22.0001ZM17.8182 17.0001C16.9747 17.0001 16.291 17.6717 16.291 18.5001C16.291 19.3285 16.9747 20.0001 17.8182 20.0001C18.6617 20.0001 19.3455 19.3285 19.3455 18.5001C19.3455 17.6717 18.6617 17.0001 17.8182 17.0001ZM5.60006 10.0001C4.75657 10.0001 4.07278 10.6717 4.07278 11.5001C4.07278 12.3285 4.75657 13.0001 5.60006 13.0001C6.44355 13.0001 7.12733 12.3285 7.12733 11.5001C7.12733 10.6717 6.44355 10.0001 5.60006 10.0001ZM17.8182 4.00008C16.9747 4.00008 16.291 4.67165 16.291 5.50008C16.291 6.32851 16.9747 7.00008 17.8182 7.00008C18.6617 7.00008 19.3455 6.32851 19.3455 5.50008C19.3455 4.67165 18.6617 4.00008 17.8182 4.00008Z" fill="#6C7275"/>
</svg>
