<svg width="25" height="24" viewBox="0 0 25 24" fill="none" xmlns="http://www.w3.org/2000/svg">
<path fill-rule="evenodd" clip-rule="evenodd" d="M24.334 12C24.334 18.6274 18.9614 24 12.334 24C5.70657 24 0.333984 18.6274 0.333984 12C0.333984 5.37258 5.70657 0 12.334 0C18.9614 0 24.334 5.37258 24.334 12ZM8.36974 10.9008C7.16765 11.4256 5.93252 11.9649 4.80311 12.587C4.21337 13.0188 4.99718 13.3243 5.73251 13.6107C5.84942 13.6563 5.96509 13.7014 6.07383 13.7464C6.16431 13.7742 6.25633 13.8035 6.34958 13.8332C7.16741 14.0938 8.07935 14.3843 8.87333 13.9472C10.1776 13.198 11.4085 12.3318 12.6384 11.4662C13.0414 11.1827 13.4442 10.8991 13.8495 10.6198C13.8685 10.6077 13.8899 10.5938 13.9134 10.5786C14.2587 10.3548 15.0352 9.85146 14.748 10.545C14.0687 11.2878 13.3412 11.9454 12.6097 12.6065C12.1167 13.052 11.622 13.4992 11.139 13.9752C10.7183 14.317 10.2815 15.0044 10.7525 15.483C11.8374 16.2426 12.9393 16.9837 14.0406 17.7243C14.3989 17.9654 14.7573 18.2064 15.1149 18.4479C15.721 18.9318 16.6682 18.5404 16.8015 17.7842C16.8608 17.4364 16.9202 17.0886 16.9797 16.7408C17.3085 14.8184 17.6374 12.8954 17.928 10.9667C17.9675 10.6642 18.0123 10.3617 18.057 10.059C18.1656 9.32549 18.2743 8.59104 18.3082 7.85354C18.2207 7.11757 17.3284 7.27939 16.8317 7.44488C14.2791 8.41618 11.752 9.45948 9.23491 10.5212C8.94977 10.6475 8.66072 10.7737 8.36974 10.9008Z" fill="#6C7275"/>
</svg>
