<svg width="17" height="20" viewBox="0 0 17 20" fill="none" xmlns="http://www.w3.org/2000/svg">
<path fill-rule="evenodd" clip-rule="evenodd" d="M5.3125 0.714286C5.3125 0.321429 5.62983 0 6.02083 0H11.3333C11.7243 0 12.0417 0.321429 12.0417 0.714286C12.0417 1.10714 11.7243 1.42857 11.3333 1.42857H6.02083C5.62983 1.42857 5.3125 1.10714 5.3125 0.714286ZM8.5 4.28571C4.58787 4.28571 1.41667 7.48571 1.41667 11.4286C1.41667 15.3714 4.58787 18.5714 8.5 18.5714C12.4121 18.5714 15.5833 15.3714 15.5833 11.4286C15.5833 7.48571 12.4121 4.28571 8.5 4.28571ZM0 11.4286C0 6.69286 3.80588 2.85714 8.5 2.85714C13.1941 2.85714 17 6.69286 17 11.4286C17 16.1643 13.1941 20 8.5 20C3.80588 20 0 16.1643 0 11.4286ZM8.5 6.42857C8.891 6.42857 9.20833 6.75 9.20833 7.14286V12.1429C9.20833 12.5357 8.891 12.8571 8.5 12.8571C8.109 12.8571 7.79167 12.5357 7.79167 12.1429V7.14286C7.79167 6.75 8.109 6.42857 8.5 6.42857Z" fill="white"/>
</svg>
