<svg width="24" height="24" viewBox="0 0 24 24" fill="none" xmlns="http://www.w3.org/2000/svg">
<path fill-rule="evenodd" clip-rule="evenodd" d="M0 12C0 18.6274 5.37258 24 12 24C18.6274 24 24 18.6274 24 12C24 5.37258 18.6274 0 12 0C5.37258 0 0 5.37258 0 12ZM19.5311 11.5408C19.5295 15.4741 16.3297 18.6747 12.3955 18.6763H12.3926C11.1984 18.6758 10.0249 18.3762 8.98267 17.8077L5.2 18.8L6.21231 15.1024C5.58787 14.0203 5.25929 12.7927 5.25982 11.5351C5.26139 7.60085 8.46241 4.4 12.3955 4.4C14.3043 4.40082 16.0959 5.14393 17.4431 6.49271C18.7903 7.84141 19.5318 9.63417 19.5311 11.5408Z" fill="white"/>
<path fill-rule="evenodd" clip-rule="evenodd" d="M6.9135 17.1045L9.15819 16.5157L9.37476 16.6442C10.2853 17.1846 11.3292 17.4705 12.3934 17.4709H12.3958C15.6647 17.4709 18.3252 14.8103 18.3265 11.5401C18.3271 9.95537 17.7108 8.4653 16.5911 7.34426C15.4713 6.22321 13.9822 5.60553 12.3981 5.60498C9.12672 5.60498 6.46614 8.26532 6.46484 11.5353C6.46438 12.6559 6.77794 13.7473 7.37162 14.6916L7.51264 14.916L6.9135 17.1045ZM15.7465 13.0768C15.8708 13.1369 15.9548 13.1775 15.9906 13.2373C16.0352 13.3117 16.0352 13.6686 15.8867 14.0852C15.7381 14.5016 15.0258 14.8818 14.6832 14.9329C14.376 14.9789 13.9873 14.998 13.5602 14.8623C13.3013 14.7801 12.9692 14.6704 12.5438 14.4867C10.8723 13.765 9.74277 12.145 9.52928 11.8388C9.51433 11.8173 9.50387 11.8023 9.49803 11.7945L9.49659 11.7926C9.40224 11.6667 8.77001 10.8232 8.77001 9.95015C8.77001 9.12888 9.17343 8.69841 9.35913 8.50027C9.37185 8.48669 9.38355 8.47421 9.39403 8.46276C9.55745 8.28426 9.75062 8.23964 9.86948 8.23964C9.98832 8.23964 10.1073 8.24074 10.2112 8.24596C10.224 8.2466 10.2373 8.24652 10.2511 8.24644C10.355 8.24583 10.4846 8.24507 10.6123 8.55201C10.6615 8.67013 10.7334 8.84524 10.8093 9.02993C10.9627 9.40344 11.1322 9.81614 11.1621 9.87587C11.2066 9.96512 11.2363 10.0692 11.1769 10.1882C11.168 10.2061 11.1597 10.2229 11.1519 10.239C11.1072 10.3302 11.0744 10.3972 10.9986 10.4856C10.9688 10.5204 10.9381 10.5579 10.9073 10.5954C10.8459 10.6701 10.7846 10.7448 10.7312 10.798C10.6419 10.8869 10.549 10.9834 10.653 11.1619C10.757 11.3404 11.1148 11.9242 11.6449 12.397C12.2146 12.9052 12.7098 13.12 12.9608 13.2289C13.0099 13.2501 13.0496 13.2674 13.0787 13.2819C13.2569 13.3712 13.3609 13.3563 13.4649 13.2373C13.5689 13.1183 13.9106 12.7167 14.0295 12.5382C14.1483 12.3598 14.2672 12.3895 14.4306 12.449C14.5941 12.5085 15.4707 12.9398 15.649 13.0291C15.6838 13.0465 15.7163 13.0622 15.7465 13.0768Z" fill="white"/>
</svg>
