<svg width="25" height="24" viewBox="0 0 25 24" fill="none" xmlns="http://www.w3.org/2000/svg">

<path d="M12.334 0C18.9614 0 24.334 5.37258 24.334 12C24.334 18.6274 18.9614 24 12.334 24C5.70657 24 0.333984 18.6274 0.333984 12C0.333984 5.37258 5.70657 0 12.334 0ZM12.7295 4.40039C8.79643 4.40039 5.59532 7.60088 5.59375 11.5352C5.59322 12.7927 5.92149 14.0204 6.5459 15.1025L5.53418 18.7998L9.31641 17.8076C10.3586 18.3761 11.5323 18.6754 12.7266 18.6758H12.7295C16.6636 18.6742 19.8635 15.4743 19.8652 11.541C19.866 9.6346 19.1243 7.84183 17.7773 6.49316C16.4302 5.1444 14.6383 4.40122 12.7295 4.40039Z" fill="#6C7275"/>
<path fill-rule="evenodd" clip-rule="evenodd" d="M7.24748 17.1048L9.49217 16.5159L9.70874 16.6445C10.6193 17.1848 11.6631 17.4708 12.7274 17.4712H12.7298C15.9987 17.4712 18.6592 14.8106 18.6605 11.5403C18.6611 9.95561 18.0448 8.46555 16.9251 7.3445C15.8053 6.22345 14.3162 5.60577 12.7321 5.60522C9.4607 5.60522 6.80013 8.26556 6.79883 11.5355C6.79837 12.6562 7.11192 13.7476 7.70561 14.6918L7.84662 14.9162L7.24748 17.1048ZM16.0804 13.077C16.2048 13.1371 16.2888 13.1777 16.3246 13.2376C16.3692 13.3119 16.3692 13.6689 16.2207 14.0854C16.072 14.5019 15.3598 14.882 15.0172 14.9332C14.71 14.9791 14.3213 14.9983 13.8942 14.8625C13.6353 14.7804 13.3032 14.6707 12.8778 14.4869C11.2063 13.7652 10.0768 12.1452 9.86327 11.839C9.84831 11.8176 9.83785 11.8026 9.83202 11.7948L9.83058 11.7929C9.73623 11.667 9.104 10.8234 9.104 9.95039C9.104 9.12913 9.50742 8.69866 9.69311 8.50051C9.70583 8.48694 9.71753 8.47445 9.72801 8.46301C9.89144 8.28451 10.0846 8.23988 10.2035 8.23988C10.3223 8.23988 10.4413 8.24098 10.5452 8.2462C10.558 8.24684 10.5713 8.24676 10.5851 8.24668C10.689 8.24607 10.8185 8.24532 10.9463 8.55226C10.9955 8.67039 11.0674 8.84552 11.1433 9.03022C11.2967 9.40373 11.4662 9.81639 11.496 9.87611C11.5406 9.96536 11.5703 10.0694 11.5109 10.1885C11.502 10.2063 11.4937 10.2232 11.4858 10.2393C11.4412 10.3304 11.4084 10.3974 11.3326 10.4859C11.3028 10.5207 11.272 10.5582 11.2413 10.5957C11.1799 10.6704 11.1186 10.7451 11.0652 10.7983C10.9759 10.8872 10.883 10.9836 10.987 11.1621C11.091 11.3406 11.4488 11.9245 11.9789 12.3972C12.5486 12.9055 13.0438 13.1203 13.2948 13.2291C13.3438 13.2504 13.3835 13.2676 13.4127 13.2822C13.5909 13.3715 13.6949 13.3565 13.7989 13.2376C13.9029 13.1186 14.2446 12.7169 14.3635 12.5385C14.4823 12.36 14.6012 12.3898 14.7646 12.4492C14.9281 12.5088 15.8046 12.9401 15.9829 13.0293C16.0177 13.0467 16.0503 13.0625 16.0804 13.077Z" fill="#6C7275"/>

</svg>
